<?xml version="1.0" encoding="UTF-8" standalone="no"?>
<!DOCTYPE svg PUBLIC "-//W3C//DTD SVG 1.1//EN"
 "http://www.w3.org/Graphics/SVG/1.1/DTD/svg11.dtd">
<!-- Generated by graphviz version 2.38.0 (20140413.2041)
 -->
<!-- Title: %3 Pages: 1 -->
<svg width="453pt" height="271pt"
 viewBox="0.00 0.00 453.29 271.18" xmlns="http://www.w3.org/2000/svg" xmlns:xlink="http://www.w3.org/1999/xlink">
<g id="graph0" class="graph" transform="scale(1 1) rotate(0) translate(4 267.179)">
<title>%3</title>
<polygon fill="white" stroke="none" points="-4,4 -4,-267.179 449.294,-267.179 449.294,4 -4,4"/>
<!-- In0 -->
<g id="node1" class="node"><title>In0</title>
<polygon fill="lightgray" stroke="black" points="49.5808,-263.179 20.5808,-263.179 20.5808,-245.179 49.5808,-245.179 49.5808,-263.179"/>
<text text-anchor="middle" x="35.0808" y="-251.979" font-family="Times,serif" font-size="9.00">In0</text>
</g>
<!-- act1 -->
<g id="node5" class="node"><title>act1</title>
<ellipse fill="lightblue" stroke="black" cx="175.081" cy="-21.9203" rx="21.8409" ry="21.8409"/>
<text text-anchor="middle" x="175.081" y="-19.7203" font-family="Times,serif" font-size="9.00">act1</text>
</g>
<!-- In0&#45;&gt;act1 -->
<g id="edge8" class="edge"><title>In0&#45;&gt;act1</title>
<path fill="none" stroke="green" stroke-width="0.257898" stroke-dasharray="1,5" d="M30.7025,-244.99C17.1189,-218.349 -21.2189,-132.811 16.0808,-79.8406 44.6578,-39.2575 104.97,-27.4572 142.549,-24.1194"/>
<polygon fill="green" stroke="green" stroke-width="0.257898" points="143.242,-27.5782 152.96,-23.3588 142.732,-20.5968 143.242,-27.5782"/>
</g>
<!-- 902 -->
<g id="node7" class="node"><title>902</title>
<ellipse fill="white" stroke="black" cx="46.0808" cy="-101.761" rx="21.4286" ry="21.4286"/>
<text text-anchor="middle" x="46.0808" y="-99.5609" font-family="Times,serif" font-size="9.00">902</text>
</g>
<!-- In0&#45;&gt;902 -->
<g id="edge16" class="edge"><title>In0&#45;&gt;902</title>
<path fill="none" stroke="green" stroke-width="0.392937" stroke-dasharray="1,5" d="M35.6723,-245.092C37.1888,-224.354 41.2779,-168.438 43.8562,-133.181"/>
<polygon fill="green" stroke="green" stroke-width="0.392937" points="47.3646,-133.193 44.6034,-122.964 40.3833,-132.682 47.3646,-133.193"/>
</g>
<!-- 1050 -->
<g id="node11" class="node"><title>1050</title>
<ellipse fill="white" stroke="black" cx="88.0808" cy="-184.43" rx="25" ry="25"/>
<text text-anchor="middle" x="88.0808" y="-182.23" font-family="Times,serif" font-size="9.00">1050</text>
</g>
<!-- In0&#45;&gt;1050 -->
<g id="edge4" class="edge"><title>In0&#45;&gt;1050</title>
<path fill="none" stroke="green" stroke-width="0.32984" d="M41.3688,-245.141C47.696,-237.053 57.808,-224.127 67.0082,-212.367"/>
<polygon fill="green" stroke="green" stroke-width="0.32984" points="69.7692,-214.518 73.1741,-204.485 64.2558,-210.205 69.7692,-214.518"/>
</g>
<!-- In1 -->
<g id="node2" class="node"><title>In1</title>
<polygon fill="lightgray" stroke="black" points="159.581,-193.43 130.581,-193.43 130.581,-175.43 159.581,-175.43 159.581,-193.43"/>
<text text-anchor="middle" x="145.081" y="-182.23" font-family="Times,serif" font-size="9.00">In1</text>
</g>
<!-- In1&#45;&gt;act1 -->
<g id="edge5" class="edge"><title>In1&#45;&gt;act1</title>
<path fill="none" stroke="green" stroke-width="0.176521" stroke-dasharray="1,5" d="M138.94,-175.406C126.182,-157.693 99.1904,-114.102 114.081,-79.8406 121.138,-63.6037 135.361,-49.896 148.3,-40.0037"/>
<polygon fill="green" stroke="green" stroke-width="0.176521" points="150.467,-42.7557 156.528,-34.0657 146.371,-37.0794 150.467,-42.7557"/>
</g>
<!-- act2 -->
<g id="node6" class="node"><title>act2</title>
<ellipse fill="lightblue" stroke="black" cx="205.081" cy="-101.761" rx="21.8409" ry="21.8409"/>
<text text-anchor="middle" x="205.081" y="-99.5609" font-family="Times,serif" font-size="9.00">act2</text>
</g>
<!-- In1&#45;&gt;act2 -->
<g id="edge3" class="edge"><title>In1&#45;&gt;act2</title>
<path fill="none" stroke="green" stroke-width="0.602119" d="M151.053,-175.4C159.231,-164.405 174.285,-144.166 186.428,-127.839"/>
<polygon fill="green" stroke="green" stroke-width="0.602119" points="189.302,-129.84 192.462,-119.727 183.685,-125.662 189.302,-129.84"/>
</g>
<!-- 724 -->
<g id="node9" class="node"><title>724</title>
<ellipse fill="white" stroke="black" cx="144.081" cy="-101.761" rx="21.4286" ry="21.4286"/>
<text text-anchor="middle" x="144.081" y="-99.5609" font-family="Times,serif" font-size="9.00">724</text>
</g>
<!-- In1&#45;&gt;724 -->
<g id="edge6" class="edge"><title>In1&#45;&gt;724</title>
<path fill="none" stroke="green" stroke-width="0.277773" d="M144.981,-175.4C144.859,-165.557 144.645,-148.305 144.457,-133.084"/>
<polygon fill="green" stroke="green" stroke-width="0.277773" points="147.955,-132.943 144.332,-122.987 140.956,-133.03 147.955,-132.943"/>
</g>
<!-- In3 -->
<g id="node3" class="node"><title>In3</title>
<polygon fill="lightgray" stroke="black" points="293.581,-193.43 264.581,-193.43 264.581,-175.43 293.581,-175.43 293.581,-193.43"/>
<text text-anchor="middle" x="279.081" y="-182.23" font-family="Times,serif" font-size="9.00">In3</text>
</g>
<!-- In3&#45;&gt;act1 -->
<g id="edge10" class="edge"><title>In3&#45;&gt;act1</title>
<path fill="none" stroke="green" stroke-width="0.331089" stroke-dasharray="1,5" d="M276.996,-175.321C272.041,-157.064 258.286,-111.834 236.081,-79.8406 226.217,-65.6281 212.279,-52.2874 200.216,-42.0987"/>
<polygon fill="green" stroke="green" stroke-width="0.331089" points="202.194,-39.1957 192.237,-35.5766 197.764,-44.6154 202.194,-39.1957"/>
</g>
<!-- In3&#45;&gt;act2 -->
<g id="edge11" class="edge"><title>In3&#45;&gt;act2</title>
<path fill="none" stroke="green" stroke-width="0.530244" d="M271.715,-175.4C261.285,-164.03 241.787,-142.775 226.567,-126.183"/>
<polygon fill="green" stroke="green" stroke-width="0.530244" points="228.836,-123.479 219.497,-118.476 223.678,-128.211 228.836,-123.479"/>
</g>
<!-- 977 -->
<g id="node8" class="node"><title>977</title>
<ellipse fill="white" stroke="black" cx="304.081" cy="-101.761" rx="21.4286" ry="21.4286"/>
<text text-anchor="middle" x="304.081" y="-99.5609" font-family="Times,serif" font-size="9.00">977</text>
</g>
<!-- In3&#45;&gt;977 -->
<g id="edge2" class="edge"><title>In3&#45;&gt;977</title>
<path fill="none" stroke="red" stroke-width="0.204949" d="M281.569,-175.4C284.69,-165.331 290.212,-147.511 295.006,-132.042"/>
<polygon fill="red" stroke="red" stroke-width="0.204949" points="298.402,-132.909 298.019,-122.321 291.716,-130.837 298.402,-132.909"/>
</g>
<!-- 187 -->
<g id="node12" class="node"><title>187</title>
<ellipse fill="white" stroke="black" cx="364.081" cy="-101.761" rx="21.4286" ry="21.4286"/>
<text text-anchor="middle" x="364.081" y="-99.5609" font-family="Times,serif" font-size="9.00">187</text>
</g>
<!-- In3&#45;&gt;187 -->
<g id="edge1" class="edge"><title>In3&#45;&gt;187</title>
<path fill="none" stroke="green" stroke-width="0.17674" d="M287.542,-175.4C299.996,-163.581 323.703,-141.081 341.448,-124.24"/>
<polygon fill="green" stroke="green" stroke-width="0.17674" points="344.276,-126.382 349.12,-116.96 339.457,-121.305 344.276,-126.382"/>
</g>
<!-- In4 -->
<g id="node4" class="node"><title>In4</title>
<polygon fill="lightgray" stroke="black" points="156.581,-263.179 127.581,-263.179 127.581,-245.179 156.581,-245.179 156.581,-263.179"/>
<text text-anchor="middle" x="142.081" y="-251.979" font-family="Times,serif" font-size="9.00">In4</text>
</g>
<!-- In4&#45;&gt;act2 -->
<g id="edge12" class="edge"><title>In4&#45;&gt;act2</title>
<path fill="none" stroke="green" stroke-width="1.02065" d="M147.577,-245.013C153.229,-236.375 162.034,-222.219 168.081,-209.179 179.659,-184.208 189.688,-154.536 196.372,-132.876"/>
<polygon fill="green" stroke="green" stroke-width="1.02065" points="199.742,-133.823 199.29,-123.238 193.043,-131.795 199.742,-133.823"/>
</g>
<!-- In4&#45;&gt;1050 -->
<g id="edge13" class="edge"><title>In4&#45;&gt;1050</title>
<path fill="none" stroke="green" stroke-width="0.219548" d="M135.674,-245.141C129.182,-236.996 118.78,-223.945 109.353,-212.118"/>
<polygon fill="green" stroke="green" stroke-width="0.219548" points="112.013,-209.84 103.043,-204.202 106.539,-214.203 112.013,-209.84"/>
</g>
<!-- 902&#45;&gt;act1 -->
<g id="edge9" class="edge"><title>902&#45;&gt;act1</title>
<path fill="none" stroke="green" stroke-width="0.248594" d="M64.0177,-89.9375C85.7213,-76.8413 122.486,-54.6569 147.731,-39.4238"/>
<polygon fill="green" stroke="green" stroke-width="0.248594" points="149.707,-42.3191 156.461,-34.1559 146.091,-36.3257 149.707,-42.3191"/>
</g>
<!-- 977&#45;&gt;act1 -->
<g id="edge7" class="edge"><title>977&#45;&gt;act1</title>
<path fill="none" stroke="green" stroke-width="0.431019" d="M286.144,-89.9375C264.44,-76.8413 227.676,-54.6569 202.431,-39.4238"/>
<polygon fill="green" stroke="green" stroke-width="0.431019" points="204.071,-36.3257 193.701,-34.1559 200.455,-42.3191 204.071,-36.3257"/>
</g>
<!-- 760 -->
<g id="node10" class="node"><title>760</title>
<ellipse fill="white" stroke="black" cx="424.081" cy="-101.761" rx="21.4286" ry="21.4286"/>
<text text-anchor="middle" x="424.081" y="-99.5609" font-family="Times,serif" font-size="9.00">760</text>
</g>
<!-- 760&#45;&gt;act1 -->
<g id="edge14" class="edge"><title>760&#45;&gt;act1</title>
<path fill="none" stroke="red" stroke-width="0.319942" d="M407.897,-87.9236C403.588,-84.948 398.81,-82.0188 394.081,-79.8406 330.956,-50.7668 250.489,-34.6933 206.797,-27.5368"/>
<polygon fill="red" stroke="red" stroke-width="0.319942" points="207.194,-24.0561 196.769,-25.9461 206.097,-30.9697 207.194,-24.0561"/>
</g>
<!-- 1050&#45;&gt;902 -->
<g id="edge15" class="edge"><title>1050&#45;&gt;902</title>
<path fill="none" stroke="green" stroke-width="0.37325" d="M77.0458,-162.235C71.91,-152.371 65.739,-140.518 60.2621,-129.999"/>
<polygon fill="green" stroke="green" stroke-width="0.37325" points="63.1996,-128.062 55.477,-120.808 56.9907,-131.294 63.1996,-128.062"/>
</g>
</g>
</svg>
